<?xml version="1.0" standalone="no"?>
<!DOCTYPE svg PUBLIC "-//W3C//DTD SVG 20010904//EN"
 "http://www.w3.org/TR/2001/REC-SVG-20010904/DTD/svg10.dtd">
<svg version="1.0" xmlns="http://www.w3.org/2000/svg"
 width="1960.000000pt" height="1960.000000pt" viewBox="0 0 1960.000000 1960.000000"
 preserveAspectRatio="xMidYMid meet">
<metadata>
Created by potrace 1.11, written by Peter Selinger 2001-2013
</metadata>
<g transform="translate(0.000000,1960.000000) scale(0.100000,-0.100000)"
fill="#000000" stroke="none">
<path d="M9408 19395 c-2 -1 -68 -6 -148 -9 -80 -4 -167 -9 -195 -11 -27 -2
-81 -7 -120 -10 -68 -5 -109 -9 -225 -20 -97 -10 -145 -16 -245 -29 -915 -122
-1726 -346 -2570 -711 -112 -48 -559 -267 -672 -329 -124 -68 -178 -99 -193
-112 -8 -7 -18 -13 -23 -13 -4 0 -17 -7 -30 -14 -12 -8 -69 -43 -127 -78 -292
-176 -627 -410 -895 -623 -55 -44 -102 -82 -105 -85 -3 -4 -27 -24 -55 -45
-27 -22 -54 -44 -60 -50 -5 -6 -39 -36 -75 -66 -36 -30 -72 -61 -81 -70 -8 -8
-51 -46 -94 -85 -265 -237 -678 -676 -910 -970 -43 -55 -81 -102 -85 -105 -8
-7 -195 -259 -267 -360 -148 -208 -370 -561 -517 -825 -58 -103 -285 -553
-324 -640 -201 -452 -364 -888 -477 -1275 -48 -163 -76 -261 -80 -280 -2 -8
-26 -107 -53 -220 -91 -375 -157 -729 -208 -1115 -3 -22 -7 -51 -9 -65 -2 -14
-7 -52 -10 -85 -3 -33 -8 -80 -10 -105 -3 -25 -8 -71 -11 -102 l-5 -58 2270 0
c1810 0 2271 3 2272 13 0 6 2 21 4 32 2 11 9 47 14 80 19 105 22 118 47 230
98 437 242 849 420 1200 54 105 113 217 132 247 9 14 32 53 51 85 69 119 299
443 368 518 10 11 47 54 82 95 68 80 302 315 387 390 91 80 108 94 199 165
141 110 319 235 335 235 4 0 10 4 12 9 6 16 280 171 453 256 181 89 431 190
610 248 214 69 569 156 705 173 19 2 42 6 50 9 8 3 35 7 60 10 25 3 77 9 115
15 124 17 207 24 395 35 86 5 484 6 535 1 22 -3 85 -7 140 -10 55 -4 116 -8
135 -11 38 -5 109 -13 180 -21 25 -3 68 -9 95 -14 28 -5 66 -12 85 -14 54 -9
89 -15 165 -32 39 -8 79 -16 90 -18 50 -10 240 -60 344 -92 192 -58 502 -173
525 -195 6 -5 16 -9 23 -9 26 0 403 -193 491 -251 24 -16 45 -29 48 -29 9 0
209 -133 212 -142 2 -4 8 -8 13 -8 9 0 135 -93 249 -184 343 -274 710 -687
937 -1051 70 -112 161 -271 209 -365 53 -102 73 -145 145 -305 132 -294 292
-836 344 -1165 8 -52 16 -93 21 -112 5 -17 122 -18 2274 -18 l2269 0 -5 43
c-2 23 -6 60 -9 82 -2 22 -7 67 -10 100 -4 33 -8 71 -10 85 -2 14 -7 48 -10
75 -4 28 -13 97 -21 155 -9 58 -17 121 -20 140 -5 37 -21 129 -29 170 -3 14
-8 41 -11 60 -5 31 -57 303 -68 356 -24 113 -42 191 -77 328 -22 89 -42 168
-44 176 -7 31 -77 269 -111 380 -39 127 -173 519 -193 565 -5 11 -16 36 -25
57 -9 20 -16 39 -16 43 0 7 -71 182 -105 260 -67 152 -99 223 -135 300 -53
113 -173 354 -210 420 -15 28 -46 85 -69 128 -90 168 -238 411 -390 642 -57
88 -107 162 -110 165 -4 3 -19 25 -36 48 -28 43 -156 217 -172 237 -5 6 -37
47 -72 93 -317 417 -790 915 -1225 1286 -26 22 -58 49 -70 60 -65 57 -279 226
-396 313 -141 105 -408 293 -416 293 -2 0 -30 17 -62 39 -62 42 -136 89 -167
107 -11 6 -63 37 -115 69 -345 210 -945 505 -1280 630 -25 9 -54 21 -65 25
-97 42 -469 169 -700 240 -70 21 -300 84 -367 101 -21 5 -55 14 -75 19 -21 6
-90 22 -153 36 -143 32 -129 29 -230 49 -47 9 -103 20 -125 25 -22 5 -98 18
-170 30 -123 20 -160 26 -230 35 -16 2 -48 7 -70 10 -77 12 -90 14 -145 20
-30 3 -71 8 -90 10 -19 2 -60 7 -90 10 -30 3 -75 8 -100 10 -45 6 -97 9 -265
20 -49 4 -115 8 -145 11 -59 6 -916 14 -922 9z"/>
<path d="M616 8082 c-2 -1 0 -20 4 -40 5 -20 11 -55 14 -77 13 -84 21 -128 47
-257 11 -57 23 -116 25 -133 3 -16 9 -43 14 -60 4 -16 16 -66 25 -110 10 -44
26 -116 37 -160 11 -44 21 -87 23 -95 2 -8 9 -35 16 -60 7 -25 13 -50 14 -55
4 -16 66 -235 80 -280 7 -22 18 -60 25 -85 48 -165 221 -656 252 -713 5 -10
11 -26 13 -35 4 -20 100 -248 170 -402 94 -210 273 -560 387 -759 26 -46 48
-86 48 -88 0 -2 13 -24 30 -48 16 -24 30 -46 30 -50 0 -4 13 -26 30 -50 16
-24 30 -48 30 -54 0 -6 3 -11 8 -11 4 0 12 -9 17 -20 8 -17 72 -117 175 -275
37 -57 179 -257 234 -330 67 -90 228 -297 236 -305 3 -3 48 -57 101 -120 53
-64 102 -122 110 -130 8 -9 32 -35 53 -60 152 -174 405 -432 657 -666 56 -52
248 -219 334 -289 26 -22 62 -51 79 -65 17 -15 72 -57 121 -95 50 -38 95 -73
100 -78 35 -28 241 -175 355 -253 534 -363 1162 -693 1755 -923 61 -24 119
-47 130 -51 162 -68 855 -284 1012 -314 10 -2 77 -18 148 -35 110 -26 355 -77
460 -95 17 -3 39 -8 50 -10 11 -2 42 -7 68 -10 27 -4 59 -9 70 -12 12 -2 42
-7 67 -9 25 -3 52 -8 60 -10 8 -2 42 -7 75 -11 33 -3 62 -7 65 -9 3 -2 37 -6
75 -10 39 -3 84 -8 100 -11 58 -8 165 -18 300 -29 44 -4 98 -8 120 -10 307
-26 1144 -27 1425 -1 19 2 79 7 132 10 53 4 107 9 120 11 13 2 55 6 93 10 39
3 84 8 100 10 17 3 68 9 115 15 47 6 96 12 110 14 34 6 118 18 154 22 17 2 71
11 120 20 50 8 105 17 121 20 17 3 37 7 45 9 8 2 29 7 45 9 105 18 349 71 487
107 90 22 168 42 173 43 34 8 119 33 255 73 132 39 243 75 520 170 66 22 348
134 470 185 367 156 879 422 1192 619 193 121 476 312 553 371 6 4 82 62 170
129 88 67 185 142 215 168 30 25 64 53 75 62 277 228 636 575 925 894 150 166
410 485 504 619 16 23 32 43 35 46 4 3 27 34 52 70 24 36 49 70 54 76 10 11
138 202 212 314 53 81 193 310 193 316 0 3 8 17 19 32 68 99 340 624 446 862
209 470 364 897 505 1395 28 98 88 330 96 370 2 11 15 72 29 135 51 224 84
389 99 490 3 19 10 59 16 89 5 29 10 59 10 65 0 9 -567 12 -2296 11 -2031 0
-2298 -2 -2305 -15 -5 -8 -27 -69 -48 -135 -47 -146 -130 -376 -141 -390 -4
-5 -11 -21 -15 -35 -21 -70 -185 -401 -272 -547 -85 -145 -188 -303 -260 -398
-5 -6 -28 -37 -53 -70 -24 -33 -65 -85 -90 -115 -25 -30 -54 -65 -65 -78 -42
-51 -154 -170 -246 -262 -417 -414 -960 -765 -1509 -974 -69 -26 -132 -51
-140 -55 -14 -8 -267 -89 -300 -97 -8 -2 -67 -17 -130 -33 -118 -31 -324 -76
-395 -86 -22 -3 -51 -8 -65 -11 -14 -2 -35 -6 -47 -8 -12 -3 -50 -7 -84 -11
-35 -4 -66 -8 -69 -10 -3 -1 -45 -6 -95 -9 -49 -4 -108 -9 -130 -12 -129 -14
-507 -19 -675 -9 -151 9 -246 16 -270 20 -14 2 -52 7 -85 10 -150 16 -338 48
-525 90 -193 43 -427 113 -620 185 -503 188 -944 443 -1340 774 -154 129 -336
305 -461 446 -68 77 -232 280 -259 320 -8 12 -31 44 -50 70 -19 26 -40 56 -47
67 -7 10 -28 41 -46 68 -210 314 -415 748 -552 1170 l-45 141 -2301 0 c-1265
0 -2301 -2 -2303 -4z"/>
</g>
</svg>
